<svg xmlns="http://www.w3.org/2000/svg" width="128" height="128" viewBox="0 0 128 128" fill="none">
  <rect width="128" height="128" rx="24" fill="#105166"/>
  <g fill="#ffffff">
    <circle cx="64" cy="64" r="28" opacity=".2"/>
    <path d="M64 28c19.882 0 36 16.118 36 36s-16.118 36-36 36S28 83.882 28 64 44.118 28 64 28Zm0 8c-15.464 0-28 12.536-28 28s12.536 28 28 28 28-12.536 28-28S79.464 36 64 36Z"/>
    <path d="M76 58c-6.627 0-12 5.373-12 12 0 2.21 1.79 4 4 4 6.627 0 12-5.373 12-12 0-2.21-1.79-4-4-4Zm-24 12c0-6.627 5.373-12 12-12 2.21 0 4 1.79 4 4 0 6.627-5.373 12-12 12-2.21 0-4-1.79-4-4Z"/>
  </g>
</svg>


